<svg width="17" height="16" viewBox="0 0 17 16" fill="none" xmlns="http://www.w3.org/2000/svg">
<path d="M16 8V14C16 14.3978 15.842 14.7794 15.5607 15.0607C15.2794 15.342 14.8978 15.5 14.5 15.5H2.5C2.10218 15.5 1.72064 15.342 1.43934 15.0607C1.15804 14.7794 1 14.3978 1 14V8C0.801088 8 0.610322 7.92098 0.46967 7.78033C0.329018 7.63968 0.25 7.44891 0.25 7.25V5C0.25 4.60217 0.408035 4.22064 0.68934 3.93934C0.970645 3.65803 1.35218 3.5 1.75 3.5H4.1275C4.04274 3.25905 3.99962 3.00542 4 2.75C4 2.15326 4.23705 1.58097 4.65901 1.15901C5.08097 0.737053 5.65326 0.5 6.25 0.5C7 0.5 7.66 0.875 8.0725 1.43V1.4225L8.5 2L8.9275 1.4225V1.43C9.34 0.875 10 0.5 10.75 0.5C11.3467 0.5 11.919 0.737053 12.341 1.15901C12.7629 1.58097 13 2.15326 13 2.75C13.0004 3.00542 12.9573 3.25905 12.8725 3.5H15.25C15.6478 3.5 16.0294 3.65803 16.3107 3.93934C16.592 4.22064 16.75 4.60217 16.75 5V7.25C16.75 7.44891 16.671 7.63968 16.5303 7.78033C16.3897 7.92098 16.1989 8 16 8ZM2.5 14H7.75V8H2.5V14ZM14.5 14V8H9.25V14H14.5ZM6.25 2C6.05109 2 5.86032 2.07902 5.71967 2.21967C5.57902 2.36032 5.5 2.55109 5.5 2.75C5.5 2.94891 5.57902 3.13968 5.71967 3.28033C5.86032 3.42098 6.05109 3.5 6.25 3.5C6.44891 3.5 6.63968 3.42098 6.78033 3.28033C6.92098 3.13968 7 2.94891 7 2.75C7 2.55109 6.92098 2.36032 6.78033 2.21967C6.63968 2.07902 6.44891 2 6.25 2ZM10.75 2C10.5511 2 10.3603 2.07902 10.2197 2.21967C10.079 2.36032 10 2.55109 10 2.75C10 2.94891 10.079 3.13968 10.2197 3.28033C10.3603 3.42098 10.5511 3.5 10.75 3.5C10.9489 3.5 11.1397 3.42098 11.2803 3.28033C11.421 3.13968 11.5 2.94891 11.5 2.75C11.5 2.55109 11.421 2.36032 11.2803 2.21967C11.1397 2.07902 10.9489 2 10.75 2ZM1.75 5V6.5H7.75V5H1.75ZM9.25 5V6.5H15.25V5H9.25Z" fill="white"/>
</svg>
