<svg width="24" height="25" viewBox="0 0 24 25" fill="none" xmlns="http://www.w3.org/2000/svg">
<g clip-path="url(#clip0_114_279)">
<path d="M3 1H21M3 24H21M5.5 24V18L8.356 16.286C9.00983 15.8938 9.55095 15.3389 9.92663 14.6754C10.3023 14.0119 10.4998 13.2625 10.4998 12.5C10.4998 11.7375 10.3023 10.9881 9.92663 10.3246C9.55095 9.66111 9.00983 9.10623 8.356 8.714L5.5 7V1M18.5 1V7L15.644 8.714C14.9904 9.10642 14.4495 9.66137 14.074 10.3248C13.6985 10.9883 13.5012 11.7376 13.5012 12.5C13.5012 13.2624 13.6985 14.0117 14.074 14.6752C14.4495 15.3386 14.9904 15.8936 15.644 16.286L18.5 18V24" stroke="black" stroke-width="2"/>
</g>
<defs>
<clipPath id="clip0_114_279">
<rect width="24" height="24" fill="white" transform="translate(0 0.5)"/>
</clipPath>
</defs>
</svg>
