<svg width="12" height="13" viewBox="0 0 12 13" fill="none" xmlns="http://www.w3.org/2000/svg">
<g clip-path="url(#clip0_97_628)">
<path d="M10.4031 3.95293C10.4102 4.05137 10.4102 4.1498 10.4102 4.24824C10.4102 7.25059 8.125 10.71 3.94844 10.71C2.66172 10.71 1.46641 10.3373 0.460938 9.69043C0.64375 9.71152 0.819531 9.71856 1.00937 9.71856C2.07109 9.71856 3.04844 9.35996 3.82891 8.74824C2.83047 8.72715 1.99375 8.07324 1.70547 7.17324C1.84609 7.19434 1.98672 7.2084 2.13437 7.2084C2.33828 7.2084 2.54219 7.18027 2.73203 7.13105C1.69141 6.92012 0.910937 6.00605 0.910937 4.90215V4.87402C1.21328 5.04277 1.56484 5.14824 1.9375 5.1623C1.32578 4.75449 0.925 4.0584 0.925 3.2709C0.925 2.84902 1.0375 2.4623 1.23437 2.1248C2.35234 3.50293 4.03281 4.40293 5.91719 4.50137C5.88203 4.33262 5.86094 4.15684 5.86094 3.98105C5.86094 2.72949 6.87344 1.70996 8.13203 1.70996C8.78594 1.70996 9.37656 1.98418 9.79141 2.42715C10.3047 2.32871 10.7969 2.13887 11.2328 1.87871C11.0641 2.40605 10.7055 2.84902 10.2344 3.13027C10.6914 3.08105 11.1344 2.95449 11.5422 2.77871C11.2328 3.22871 10.8461 3.62949 10.4031 3.95293Z" fill="#0F0D0A"/>
</g>
<defs>
<clipPath id="clip0_97_628">
<rect width="12" height="12" fill="white" transform="translate(0 0.209961)"/>
</clipPath>
</defs>
</svg>
