<svg width="12" height="13" viewBox="0 0 12 13" fill="none" xmlns="http://www.w3.org/2000/svg">
<g opacity="0.65" clip-path="url(#clip0_97_645)">
<g clip-path="url(#clip1_97_645)">
<g clip-path="url(#clip2_97_645)">
<path d="M6.0041 3.51484C4.51348 3.51484 3.31113 4.71719 3.31113 6.20781C3.31113 7.69844 4.51348 8.90078 6.0041 8.90078C7.49473 8.90078 8.69707 7.69844 8.69707 6.20781C8.69707 4.71719 7.49473 3.51484 6.0041 3.51484ZM6.0041 7.95859C5.04082 7.95859 4.25332 7.17344 4.25332 6.20781C4.25332 5.24219 5.03848 4.45703 6.0041 4.45703C6.96973 4.45703 7.75488 5.24219 7.75488 6.20781C7.75488 7.17344 6.96738 7.95859 6.0041 7.95859ZM9.43535 3.40469C9.43535 3.75391 9.1541 4.03281 8.80723 4.03281C8.45801 4.03281 8.1791 3.75156 8.1791 3.40469C8.1791 3.05781 8.46035 2.77656 8.80723 2.77656C9.1541 2.77656 9.43535 3.05781 9.43535 3.40469ZM11.2189 4.04219C11.1791 3.20078 10.9869 2.45547 10.3705 1.84141C9.75645 1.22734 9.01113 1.03516 8.16973 0.992969C7.30254 0.94375 4.70332 0.94375 3.83613 0.992969C2.99707 1.03281 2.25176 1.225 1.63535 1.83906C1.01895 2.45312 0.829102 3.19844 0.786914 4.03984C0.737695 4.90703 0.737695 7.50625 0.786914 8.37344C0.826758 9.21484 1.01895 9.96016 1.63535 10.5742C2.25176 11.1883 2.99473 11.3805 3.83613 11.4227C4.70332 11.4719 7.30254 11.4719 8.16973 11.4227C9.01113 11.3828 9.75645 11.1906 10.3705 10.5742C10.9846 9.96016 11.1768 9.21484 11.2189 8.37344C11.2682 7.50625 11.2682 4.90938 11.2189 4.04219ZM10.0986 9.30391C9.91582 9.76328 9.56191 10.1172 9.1002 10.3023C8.40879 10.5766 6.76816 10.5133 6.0041 10.5133C5.24004 10.5133 3.59707 10.5742 2.90801 10.3023C2.44863 10.1195 2.09473 9.76562 1.90957 9.30391C1.63535 8.6125 1.69863 6.97187 1.69863 6.20781C1.69863 5.44375 1.6377 3.80078 1.90957 3.11172C2.09238 2.65234 2.44629 2.29844 2.90801 2.11328C3.59941 1.83906 5.24004 1.90234 6.0041 1.90234C6.76816 1.90234 8.41113 1.84141 9.1002 2.11328C9.55957 2.29609 9.91348 2.65 10.0986 3.11172C10.3729 3.80312 10.3096 5.44375 10.3096 6.20781C10.3096 6.97187 10.3729 8.61484 10.0986 9.30391Z" fill="#0F0D0A"/>
</g>
</g>
</g>
<defs>
<clipPath id="clip0_97_645">
<rect width="12" height="12" fill="white" transform="translate(0 0.209961)"/>
</clipPath>
<clipPath id="clip1_97_645">
<rect width="12" height="12" fill="white" transform="translate(0 0.209961)"/>
</clipPath>
<clipPath id="clip2_97_645">
<rect width="10.5" height="12" fill="white" transform="translate(0.75 0.209961)"/>
</clipPath>
</defs>
</svg>
