<svg width="12" height="13" viewBox="0 0 12 13" fill="none" xmlns="http://www.w3.org/2000/svg">
<g clip-path="url(#clip0_97_640)">
<g clip-path="url(#clip1_97_640)">
<path d="M10.5 0.959961H1.49766C1.08516 0.959961 0.75 1.2998 0.75 1.71699V10.7029C0.75 11.1201 1.08516 11.46 1.49766 11.46H10.5C10.9125 11.46 11.25 11.1201 11.25 10.7029V1.71699C11.25 1.2998 10.9125 0.959961 10.5 0.959961ZM3.92344 9.95996H2.36719V4.94902H3.92578V9.95996H3.92344ZM3.14531 4.26465C2.64609 4.26465 2.24297 3.85918 2.24297 3.3623C2.24297 2.86543 2.64609 2.45996 3.14531 2.45996C3.64219 2.45996 4.04766 2.86543 4.04766 3.3623C4.04766 3.86152 3.64453 4.26465 3.14531 4.26465ZM9.75703 9.95996H8.20078V7.52246C8.20078 6.94121 8.18906 6.19355 7.39219 6.19355C6.58125 6.19355 6.45703 6.82637 6.45703 7.48027V9.95996H4.90078V4.94902H6.39375V5.6334H6.41484C6.62344 5.23965 7.13203 4.8248 7.88906 4.8248C9.46406 4.8248 9.75703 5.86309 9.75703 7.21309V9.95996Z" fill="#0F0D0A"/>
</g>
</g>
<defs>
<clipPath id="clip0_97_640">
<rect width="12" height="12" fill="white" transform="translate(0 0.209961)"/>
</clipPath>
<clipPath id="clip1_97_640">
<rect width="10.5" height="12" fill="white" transform="translate(0.75 0.209961)"/>
</clipPath>
</defs>
</svg>
