<svg width="12" height="13" viewBox="0 0 12 13" fill="none" xmlns="http://www.w3.org/2000/svg">
<g clip-path="url(#clip0_97_651)">
<path d="M11.7492 3.02949C11.6109 2.50918 11.2055 2.10137 10.6875 1.96074C9.75234 1.70996 6 1.70996 6 1.70996C6 1.70996 2.24766 1.70996 1.3125 1.96309C0.796875 2.10137 0.389062 2.51152 0.250781 3.03184C0 3.97168 0 5.93809 0 5.93809C0 5.93809 0 7.90215 0.250781 8.84434C0.389062 9.36465 0.794531 9.75605 1.3125 9.89434C2.24766 10.1475 6 10.1475 6 10.1475C6 10.1475 9.75234 10.1475 10.6875 9.89434C11.2031 9.75605 11.6109 9.3623 11.7492 8.84434C12 7.90215 12 5.93809 12 5.93809C12 5.93809 12 3.97168 11.7492 3.02949ZM4.77188 7.72168V4.15215L7.90781 5.93574L4.77188 7.72168Z" fill="#0F0D0A"/>
</g>
<defs>
<clipPath id="clip0_97_651">
<rect width="12" height="12" fill="white" transform="translate(0 0.209961)"/>
</clipPath>
</defs>
</svg>
