<svg width="17" height="17" viewBox="0 0 17 17" fill="none" xmlns="http://www.w3.org/2000/svg">
<g clip-path="url(#clip0_97_716)">
<path d="M8.74594 1.48828C5.06594 1.48828 2.08594 4.47495 2.08594 8.15495C2.08594 11.8349 5.06594 14.8216 8.74594 14.8216C12.4326 14.8216 15.4193 11.8349 15.4193 8.15495C15.4193 4.47495 12.4326 1.48828 8.74594 1.48828ZM13.3659 5.48828H11.3993C11.1859 4.65495 10.8793 3.85495 10.4793 3.11495C11.7059 3.53495 12.7259 4.38828 13.3659 5.48828ZM8.7526 2.84828C9.30594 3.64828 9.73927 4.53495 10.0259 5.48828H7.47927C7.76594 4.53495 8.19927 3.64828 8.7526 2.84828ZM3.5926 9.48828C3.48594 9.06161 3.41927 8.61495 3.41927 8.15495C3.41927 7.69495 3.48594 7.24828 3.5926 6.82161H5.84594C5.7926 7.26161 5.7526 7.70161 5.7526 8.15495C5.7526 8.60828 5.7926 9.04828 5.84594 9.48828H3.5926ZM4.13927 10.8216H6.10594C6.31927 11.6549 6.62594 12.4549 7.02594 13.1949C5.79927 12.7749 4.77927 11.9283 4.13927 10.8216ZM6.10594 5.48828H4.13927C4.77927 4.38161 5.79927 3.53495 7.02594 3.11495C6.62594 3.85495 6.31927 4.65495 6.10594 5.48828ZM8.7526 13.4616C8.19927 12.6616 7.76594 11.7749 7.47927 10.8216H10.0259C9.73927 11.7749 9.30594 12.6616 8.7526 13.4616ZM10.3126 9.48828H7.1926C7.1326 9.04828 7.08594 8.60828 7.08594 8.15495C7.08594 7.70161 7.1326 7.25495 7.1926 6.82161H10.3126C10.3726 7.25495 10.4193 7.70161 10.4193 8.15495C10.4193 8.60828 10.3726 9.04828 10.3126 9.48828ZM10.4793 13.1949C10.8793 12.4549 11.1859 11.6549 11.3993 10.8216H13.3659C12.7259 11.9216 11.7059 12.7749 10.4793 13.1949ZM11.6593 9.48828C11.7126 9.04828 11.7526 8.60828 11.7526 8.15495C11.7526 7.70161 11.7126 7.26161 11.6593 6.82161H13.9126C14.0193 7.24828 14.0859 7.69495 14.0859 8.15495C14.0859 8.61495 14.0193 9.06161 13.9126 9.48828H11.6593Z" fill="#0F0D0A"/>
</g>
<defs>
<clipPath id="clip0_97_716">
<rect width="16" height="16" fill="white" transform="translate(0.75 0.154785)"/>
</clipPath>
</defs>
</svg>
