<svg width="17" height="15" viewBox="0 0 17 15" fill="none" xmlns="http://www.w3.org/2000/svg">
<path d="M3.99998 1.10073e-08C3.91357 -1.81179e-05 3.82863 0.0223578 3.75345 0.0649455C3.67826 0.107533 3.6154 0.168879 3.57098 0.243L0.570983 5.243C0.517728 5.33197 0.493452 5.4353 0.501514 5.53867C0.509576 5.64205 0.549579 5.74036 0.615983 5.82L8.11598 14.82C8.16291 14.8763 8.22163 14.9215 8.28798 14.9526C8.35434 14.9837 8.42671 14.9998 8.49998 14.9998C8.57325 14.9998 8.64563 14.9837 8.71198 14.9526C8.77834 14.9215 8.83706 14.8763 8.88398 14.82L16.384 5.82C16.4504 5.74036 16.4904 5.64205 16.4985 5.53867C16.5065 5.4353 16.4822 5.33197 16.429 5.243L13.429 0.243C13.3846 0.168879 13.3217 0.107533 13.2465 0.0649455C13.1713 0.0223578 13.0864 -1.81179e-05 13 1.10073e-08H3.99998ZM1.88298 5L4.28298 1H6.26198L4.66198 5H1.88298ZM4.65798 6L6.92498 11.829L2.06798 6H4.65798ZM8.49998 13.12L5.73098 6H11.269L8.49998 13.12ZM5.73898 5L7.33898 1H9.66098L11.261 5H5.73898ZM12.339 5L10.739 1H12.717L15.117 5H12.339ZM12.342 6H14.932L10.075 11.829L12.342 6Z" fill="white"/>
</svg>
