<svg width="20" height="20" viewBox="0 0 20 20" fill="none" xmlns="http://www.w3.org/2000/svg">
<rect width="20" height="20" transform="translate(-0.0100098)" fill="#FBFAF9"/>
<path d="M12.9072 11.6667H12.2488L12.0155 11.4417C13.0155 10.275 13.5322 8.68337 13.2488 6.9917C12.8572 4.67503 10.9238 2.82503 8.59051 2.5417C5.06551 2.10837 2.09884 5.07503 2.53218 8.60003C2.81551 10.9334 4.66551 12.8667 6.98218 13.2584C8.67384 13.5417 10.2655 13.025 11.4322 12.025L11.6572 12.2584V12.9167L15.1988 16.4584C15.5405 16.8 16.0988 16.8 16.4405 16.4584C16.7822 16.1167 16.7822 15.5584 16.4405 15.2167L12.9072 11.6667ZM7.90718 11.6667C5.83218 11.6667 4.15718 9.9917 4.15718 7.9167C4.15718 5.8417 5.83218 4.1667 7.90718 4.1667C9.98218 4.1667 11.6572 5.8417 11.6572 7.9167C11.6572 9.9917 9.98218 11.6667 7.90718 11.6667Z" fill="#7E7367"/>
</svg>
