<svg width="22" height="21" viewBox="0 0 22 21" fill="none" xmlns="http://www.w3.org/2000/svg">
<path d="M11.3628 15.1741L15.3323 17.6944C15.8443 18.0173 16.4743 17.5369 16.3247 16.9462L15.1748 12.4253C15.1437 12.3 15.1486 12.1685 15.1891 12.0458C15.2295 11.9232 15.3037 11.8145 15.4032 11.7322L18.9632 8.76298C19.4278 8.37705 19.1916 7.59733 18.5851 7.55795L13.9383 7.25866C13.8115 7.25128 13.6896 7.20713 13.5875 7.1316C13.4854 7.05607 13.4075 6.95243 13.3633 6.83336L11.6306 2.47004C11.5847 2.34395 11.5012 2.23502 11.3913 2.15805C11.2814 2.08108 11.1504 2.03979 11.0163 2.03979C10.8821 2.03979 10.7512 2.08108 10.6412 2.15805C10.5313 2.23502 10.4478 2.34395 10.4019 2.47004L8.6692 6.83336C8.62504 6.95243 8.54715 7.05607 8.44504 7.1316C8.34294 7.20713 8.22104 7.25128 8.09425 7.25866L3.4474 7.55795C2.84095 7.59733 2.60467 8.37705 3.06935 8.76298L6.62931 11.7322C6.72881 11.8145 6.80305 11.9232 6.84346 12.0458C6.88387 12.1685 6.88881 12.3 6.85772 12.4253L5.79446 16.6154C5.61331 17.3242 6.3694 17.8992 6.97586 17.5132L10.6697 15.1741C10.7733 15.1082 10.8935 15.0732 11.0163 15.0732C11.139 15.0732 11.2592 15.1082 11.3628 15.1741V15.1741Z" fill="#F8F8F8" stroke="#ADB7BC" stroke-width="1.89024" stroke-linecap="round" stroke-linejoin="round"/>
</svg>
