<svg width="12" height="20" viewBox="0 0 12 20" fill="none" xmlns="http://www.w3.org/2000/svg">
<path d="M3.454 13.385C3.214 13.385 3.014 13.3037 2.854 13.141C2.69533 12.9783 2.616 12.7767 2.616 12.536V11.114C2.616 11.0433 2.63867 10.981 2.684 10.927C2.72933 10.873 2.795 10.832 2.881 10.804C3.053 10.748 3.193 10.6497 3.301 10.509C3.40767 10.3683 3.461 10.1997 3.461 10.003C3.461 9.80633 3.40767 9.638 3.301 9.498C3.19433 9.358 3.055 9.26 2.883 9.204C2.79967 9.18333 2.73433 9.14433 2.687 9.087C2.63967 9.03033 2.616 8.96633 2.616 8.895V7.461C2.616 7.22167 2.697 7.021 2.859 6.859C3.021 6.697 3.22233 6.61567 3.463 6.615H8.546C8.786 6.615 8.986 6.69633 9.146 6.859C9.30533 7.021 9.385 7.22167 9.385 7.461V8.895C9.385 8.96633 9.362 9.03033 9.316 9.087C9.27 9.14367 9.20367 9.18467 9.117 9.21C8.943 9.25933 8.803 9.354 8.697 9.494C8.591 9.634 8.53833 9.802 8.539 9.998C8.53967 10.194 8.593 10.362 8.699 10.502C8.805 10.642 8.94433 10.74 9.117 10.796C9.20033 10.8167 9.266 10.8553 9.314 10.912C9.36067 10.9693 9.384 11.0337 9.384 11.105V12.539C9.384 12.7783 9.303 12.979 9.141 13.141C8.979 13.303 8.778 13.3843 8.538 13.385H3.454ZM6 12.115C6.12 12.115 6.22067 12.075 6.302 11.995C6.38267 11.9137 6.423 11.8127 6.423 11.692C6.423 11.5713 6.38267 11.471 6.302 11.391C6.22133 11.311 6.12067 11.2703 6 11.269C5.87933 11.2677 5.77867 11.3083 5.698 11.391C5.61733 11.4737 5.577 11.574 5.577 11.692C5.577 11.81 5.61733 11.9107 5.698 11.994C5.77867 12.0753 5.87933 12.116 6 12.116M6 10.423C6.12 10.423 6.22067 10.3827 6.302 10.302C6.38267 10.2213 6.423 10.1207 6.423 10C6.423 9.87933 6.38267 9.77867 6.302 9.698C6.22133 9.61733 6.12067 9.577 6 9.577C5.87933 9.577 5.77867 9.61733 5.698 9.698C5.61733 9.77867 5.577 9.87933 5.577 10C5.577 10.1207 5.61733 10.2213 5.698 10.302C5.77867 10.3827 5.87933 10.423 6 10.423ZM6 8.731C6.12 8.731 6.22067 8.69067 6.302 8.61C6.38267 8.52933 6.423 8.42867 6.423 8.308C6.423 8.18733 6.38267 8.08667 6.302 8.006C6.22133 7.92533 6.12067 7.885 6 7.885C5.87933 7.885 5.77867 7.925 5.698 8.005C5.61733 8.085 5.577 8.186 5.577 8.308C5.577 8.43 5.61733 8.53067 5.698 8.61C5.77867 8.69 5.87933 8.73 6 8.73M1.616 20C1.15533 20 0.771 19.846 0.463 19.538C0.155 19.23 0.000666667 18.8457 0 18.385V1.615C0 1.155 0.154333 0.771 0.463 0.463C0.771667 0.155 1.156 0.000666667 1.616 0H10.385C10.845 0 11.229 0.154333 11.537 0.463C11.845 0.771667 11.9993 1.156 12 1.616V18.385C12 18.845 11.846 19.2293 11.538 19.538C11.23 19.8467 10.8453 20.0007 10.384 20H1.616ZM1 17.5V18.385C1 18.5383 1.064 18.6793 1.192 18.808C1.32 18.9367 1.461 19.0007 1.615 19H10.385C10.5383 19 10.6793 18.936 10.808 18.808C10.9367 18.68 11.0007 18.5387 11 18.384V17.5H1ZM1 16.5H11V3.5H1V16.5ZM1 2.5H11V1.615C11 1.46167 10.936 1.32067 10.808 1.192C10.68 1.06333 10.5387 0.999333 10.384 1H1.616C1.462 1 1.32067 1.064 1.192 1.192C1.06333 1.32 0.999333 1.46133 1 1.616V2.5Z" fill="white"/>
</svg>
