<svg width="16" height="17" viewBox="0 0 16 17" fill="none" xmlns="http://www.w3.org/2000/svg">
<path d="M8 1.16675L2 3.83341V7.83342C2 11.5334 4.56 14.9934 8 15.8334C11.44 14.9934 14 11.5334 14 7.83342V3.83341L8 1.16675ZM12.6667 7.83342C12.6667 10.8467 10.68 13.6267 8 14.4534C5.32 13.6267 3.33333 10.8467 3.33333 7.83342V4.70008L8 2.62675L12.6667 4.70008V7.83342ZM4.94 8.22675L4 9.16675L6.66667 11.8334L12 6.50008L11.06 5.55341L6.66667 9.94675L4.94 8.22675Z" fill="white"/>
<path opacity="0.3" d="M3.33594 4.6998V7.83313C3.33594 10.8465 5.3226 13.6265 8.0026 14.4531C10.6826 13.6331 12.6693 10.8465 12.6693 7.83313V4.6998L8.0026 2.62646L3.33594 4.6998ZM12.0026 6.4998L6.66927 11.8331L4.0026 9.16646L4.9426 8.22646L6.66927 9.94646L11.0626 5.55313L12.0026 6.4998Z" fill="white"/>
</svg>
