<svg width="16" height="17" viewBox="0 0 16 17" fill="none" xmlns="http://www.w3.org/2000/svg">
<path d="M8.00488 0.966797L2.00488 3.63346V7.63346C2.00488 11.3335 4.56488 14.7935 8.00488 15.6335C11.4449 14.7935 14.0049 11.3335 14.0049 7.63346V3.63346L8.00488 0.966797ZM12.6715 7.63346C12.6715 10.6468 10.6849 13.4268 8.00488 14.2535C5.32488 13.4268 3.33822 10.6468 3.33822 7.63346V4.50013L8.00488 2.4268L12.6715 4.50013V7.63346ZM4.94488 8.0268L4.00488 8.9668L6.67155 11.6335L12.0049 6.30013L11.0649 5.35346L6.67155 9.7468L4.94488 8.0268Z" fill="#463F39"/>
<path opacity="0.3" d="M3.34082 4.49985V7.63318C3.34082 10.6465 5.32749 13.4265 8.00749 14.2532C10.6875 13.4332 12.6742 10.6465 12.6742 7.63318V4.49985L8.00749 2.42651L3.34082 4.49985ZM12.0075 6.29985L6.67415 11.6332L4.00749 8.96651L4.94749 8.02651L6.67415 9.74651L11.0675 5.35318L12.0075 6.29985Z" fill="#463F39"/>
</svg>
