<svg width="22" height="22" viewBox="0 0 22 22" fill="none" xmlns="http://www.w3.org/2000/svg">
<path d="M21 11.1902H7.64324M2.92865 11.1902H1M2.92865 11.1902C2.92865 10.5197 3.17695 9.87667 3.61893 9.40255C4.0609 8.92844 4.66035 8.66208 5.28541 8.66208C5.91046 8.66208 6.50991 8.92844 6.95188 9.40255C7.39386 9.87667 7.64216 10.5197 7.64216 11.1902C7.64216 11.8607 7.39386 12.5038 6.95188 12.9779C6.50991 13.452 5.91046 13.7183 5.28541 13.7183C4.66035 13.7183 4.0609 13.452 3.61893 12.9779C3.17695 12.5038 2.92865 11.8607 2.92865 11.1902ZM21 18.8523H14.7859M14.7859 18.8523C14.7859 19.5229 14.537 20.1667 14.095 20.6409C13.6529 21.1152 13.0533 21.3816 12.4281 21.3816C11.8031 21.3816 11.2036 21.1141 10.7616 20.64C10.3197 20.1658 10.0714 19.5228 10.0714 18.8523M14.7859 18.8523C14.7859 18.1816 14.537 17.539 14.095 17.0648C13.6529 16.5906 13.0533 16.3242 12.4281 16.3242C11.8031 16.3242 11.2036 16.5905 10.7616 17.0646C10.3197 17.5388 10.0714 18.1818 10.0714 18.8523M10.0714 18.8523H1M21 3.52813H17.6432M12.9286 3.52813H1M12.9286 3.52813C12.9286 2.85763 13.1769 2.21459 13.6189 1.74047C14.0609 1.26636 14.6604 1 15.2854 1C15.5949 1 15.9014 1.06539 16.1873 1.19244C16.4732 1.31949 16.733 1.50571 16.9519 1.74047C17.1707 1.97523 17.3443 2.25393 17.4628 2.56066C17.5812 2.86738 17.6422 3.19613 17.6422 3.52813C17.6422 3.86013 17.5812 4.18887 17.4628 4.4956C17.3443 4.80233 17.1707 5.08103 16.9519 5.31578C16.733 5.55054 16.4732 5.73676 16.1873 5.86381C15.9014 5.99086 15.5949 6.05626 15.2854 6.05626C14.6604 6.05626 14.0609 5.7899 13.6189 5.31578C13.1769 4.84167 12.9286 4.19863 12.9286 3.52813Z" stroke="#FFA500" stroke-miterlimit="10" stroke-linecap="round"/>
</svg>
